<?xml version="1.0" standalone="no"?>
<!DOCTYPE svg PUBLIC "-//W3C//DTD SVG 1.1//EN" "http://www.w3.org/Graphics/SVG/1.1/DTD/svg11.dtd" >
<svg>
<metadata>
Created by FontForge 20110222 at Mon Mar  7 03:51:13 2011
 By www-data
[c]2000 Neale Davidson
</metadata>
<defs>
<font id="ComicBookNormal" horiz-adv-x="259" >
  <font-face 
    font-family="Comic Book"
    font-weight="400"
    font-stretch="normal"
    units-per-em="1000"
    panose-1="2 0 5 3 0 0 0 0 0 0"
    ascent="800"
    descent="-200"
    x-height="560"
    cap-height="723"
    bbox="-8 -142 1066 797"
    underline-thickness="20"
    underline-position="-143"
    unicode-range="U+0020-007E"
  />
    <missing-glyph />
    <glyph glyph-name="space" unicode=" " horiz-adv-x="318" 
 />
    <glyph glyph-name="exclam" unicode="!" horiz-adv-x="515" 
d="M281 693c9 15 37 23 82 23c100 -4 101 -4 158 -4c21 0 31 -8 31 -23c0 -37 -56 -112 -167 -225c-79 -121 -119 -188 -119 -202c0 -1 0 -1 2 -3c0 -2 -13 -3 -37 -3c-20 0 -20 0 -124 4c11 9 12 9 174 433zM124 180c35 0 78 -30 78 -75c0 -16 -7 -37 -12 -37
c0 -6 -62 -77 -116 -77c-36 0 -66 30 -66 67c0 53 72 122 116 122z" />
    <glyph glyph-name="quotedbl" unicode="&#x22;" horiz-adv-x="402" 
d="M2 555c-1 6 -2 12 -2 19c0 58 77 122 115 122c36 0 79 -31 79 -75c0 -16 -8 -37 -13 -37c1 0 1 0 1 -1c0 -9 -40 -73 -67 -100c-24 -24 -48 -36 -71 -36c-13 0 -25 4 -38 12c29 29 44 51 44 67c0 17 -16 27 -48 29zM239 551c-1 6 -2 12 -2 19c0 58 77 122 115 122
c36 0 79 -31 79 -75c0 -16 -8 -37 -13 -37c1 0 1 0 1 -1c0 -9 -40 -73 -67 -100c-24 -24 -48 -36 -71 -36c-13 0 -25 4 -38 12c29 29 44 51 44 67c0 17 -16 27 -48 29z" />
    <glyph glyph-name="numbersign" unicode="#" horiz-adv-x="635" 
d="M352 344l20 57h-70c-8 -21 -14 -42 -20 -62c25 2 48 4 70 5zM311 226v1l-69 -1c-41 -111 -41 -111 -115 -111c-56 0 -84 6 -84 17c10 19 17 38 36 90h-20c-10 0 -60 57 -60 83c0 5 2 9 5 12c1 1 39 4 112 10l24 69h-55c-10 0 -60 57 -60 83c0 5 2 9 5 12c1 1 50 6 147 13
c23 69 37 107 41 115c5 15 29 22 71 22c43 0 70 -9 81 -26c-4 -14 -14 -47 -31 -100c26 2 51 4 74 5c20 58 32 91 35 98c5 15 29 22 71 22c43 0 70 -9 81 -26c-4 -12 -14 -41 -28 -89c31 -1 47 -3 48 -7c42 -61 42 -61 42 -71c0 -23 -26 -27 -126 -35l-20 -61
c51 0 77 -2 78 -7c42 -61 42 -61 42 -71c0 -24 -30 -29 -160 -38c-19 -51 -32 -84 -41 -100c-5 -14 -31 -21 -78 -21c-56 0 -84 6 -84 17c8 17 21 49 38 95z" />
    <glyph glyph-name="dollar" unicode="$" horiz-adv-x="697" 
d="M334 548c-73 -7 -110 -27 -110 -60c0 -21 21 -36 73 -50c13 40 25 78 37 110zM422 422l54 1c131 0 196 -47 196 -141c0 -82 -28 -121 -114 -156c-64 -26 -141 -39 -232 -39c-10 -41 -22 -70 -36 -88h-21c-54 0 -90 24 -90 60c0 12 4 26 11 41c-81 19 -173 88 -173 117
c0 26 82 85 118 85c9 0 15 -4 16 -11c5 -27 31 -48 79 -64l36 114c-20 0 -21 0 -71 -6c-42 0 -121 56 -121 102c0 38 29 111 60 145c43 47 113 72 242 88c40 109 51 127 74 127c30 0 82 -59 82 -83c-9 -4 -10 -4 -23 -37c149 -3 232 -58 232 -130c0 -45 -44 -88 -88 -88
c-31 0 -49 19 -53 56c-3 23 -48 36 -135 37c-13 -37 -27 -81 -43 -130zM356 210c99 2 174 39 174 79c0 23 -45 39 -135 48z" />
    <glyph glyph-name="percent" unicode="%" horiz-adv-x="739" 
d="M86 0c-2 -3 -6 -5 -12 -5c-28 0 -72 40 -72 67c0 15 0 16 339 369c27 16 71 58 287 264c13 10 34 15 63 15c39 0 58 -12 58 -35c0 -36 -46 -87 -219 -240c-124 -109 -191 -171 -200 -184c-8 0 -213 -204 -244 -251zM710 174c0 72 -59 145 -145 150
c-91 0 -196 -102 -200 -210c0 -65 54 -112 135 -115c79 0 98 19 181 102c19 22 29 46 29 73zM535 205c30 0 45 -13 45 -38c0 -30 -20 -44 -59 -44c-29 0 -44 8 -44 24c0 31 22 58 58 58zM345 557c0 72 -59 145 -145 150c-91 0 -196 -102 -200 -210c0 -65 54 -112 135 -115
c79 0 98 19 181 102c19 22 29 46 29 73zM170 588c30 0 45 -13 45 -38c0 -30 -20 -44 -59 -44c-29 0 -44 8 -44 24c0 31 22 58 58 58z" />
    <glyph glyph-name="ampersand" unicode="&#x26;" horiz-adv-x="565" 
d="M207 286c-56 -25 -84 -51 -84 -78c0 -15 14 -25 41 -28zM311 538c-95 0 -162 -21 -162 -51c0 -27 55 -57 114 -62c17 41 33 79 48 113zM277 654c26 0 54 -1 83 -3c59 134 69 146 90 146c30 0 82 -59 82 -83c-12 -7 -17 -17 -44 -81c80 -17 117 -38 117 -63
c-3 -32 -25 -56 -68 -72c-25 17 -55 28 -90 34c-13 -33 -27 -69 -42 -109h39c-15 -81 -17 -91 -73 -91l-45 -122c53 21 97 48 131 81c2 2 4 3 7 3c25 0 75 -59 75 -88c0 -28 -127 -85 -263 -128c-28 -68 -50 -112 -66 -132h-21c-53 0 -90 24 -90 60c0 12 1 15 20 64
c-66 19 -106 71 -106 133c0 74 42 117 127 128c-63 36 -95 81 -95 136c0 99 107 186 232 187z" />
    <glyph glyph-name="quotesingle" unicode="'" horiz-adv-x="181" 
d="M2 555c-1 6 -2 12 -2 19c0 58 77 122 115 122c36 0 79 -31 79 -75c0 -16 -8 -37 -13 -37c1 0 1 0 1 -1c0 -9 -40 -73 -67 -100c-24 -24 -48 -36 -71 -36c-13 0 -25 4 -38 12c29 29 44 51 44 67c0 17 -16 27 -48 29z" />
    <glyph glyph-name="parenleft" unicode="(" horiz-adv-x="487" 
d="M155 230c0 167 164 358 309 367c28 1 52 29 58 70l-32 60c-255 0 -489 -263 -489 -545c0 -121 92 -182 251 -182c41 24 61 51 61 82c0 12 -2 27 -7 44c-91 0 -151 41 -151 104z" />
    <glyph glyph-name="parenright" unicode=")" horiz-adv-x="528" 
d="M385 130c111 143 167 260 167 350c0 151 -123 249 -268 249c-29 -14 -43 -40 -43 -77c0 -35 11 -53 33 -54c89 0 157 -46 157 -108c0 -147 -166 -364 -357 -364c-28 -3 -71 -63 -71 -101c0 -14 6 -22 17 -25c150 0 308 56 365 130z" />
    <glyph glyph-name="asterisk" unicode="*" horiz-adv-x="501" 
d="M67 194c9 7 36 53 81 138l-82 -1c-10 0 -60 57 -60 83c0 13 0 13 145 29c-27 50 -55 100 -84 151c11 17 38 26 81 26c42 0 66 -7 71 -22c9 -19 20 -41 32 -64l32 64c5 15 29 22 71 22c43 0 70 -9 81 -26c-12 -19 -36 -64 -74 -133c88 0 91 0 92 -4c41 -59 43 -62 43 -72
c0 -22 -28 -30 -148 -40c49 -93 78 -143 87 -151c1 -1 2 -3 2 -4c0 -11 -28 -17 -84 -17c-47 0 -73 7 -78 21c0 10 -6 24 -24 60c-18 -36 -24 -50 -24 -60c-5 -14 -31 -21 -78 -21c-56 0 -84 6 -84 17c0 1 1 3 2 4z" />
    <glyph glyph-name="plus" unicode="+" horiz-adv-x="490" 
d="M67 194c9 7 36 53 81 138l-82 -1c-10 0 -60 57 -60 83c0 15 0 15 202 35c27 52 52 102 75 149c5 15 29 22 71 22c43 0 70 -9 81 -26c-12 -19 -36 -64 -74 -133c88 0 91 0 92 -4c41 -59 43 -62 43 -72c0 -21 -18 -32 -200 -45c-52 -97 -69 -134 -69 -146
c-5 -14 -31 -21 -78 -21c-56 0 -84 6 -84 17c0 1 1 3 2 4z" />
    <glyph glyph-name="comma" unicode="," horiz-adv-x="255" 
d="M5 47c-1 6 -2 12 -2 19c0 58 77 122 115 122c36 0 79 -31 79 -75c0 -16 -8 -37 -13 -37c1 0 1 0 1 -1c0 -9 -40 -73 -67 -100c-24 -24 -48 -36 -71 -36c-13 0 -25 4 -38 12c29 29 44 51 44 67c0 17 -16 27 -48 29z" />
    <glyph glyph-name="hyphen" unicode="-" horiz-adv-x="514" 
d="M10 425c7 6 300 37 400 37c28 0 43 -2 44 -6c42 -61 42 -61 42 -71c0 -31 -46 -38 -397 -54h-33c-10 0 -60 57 -60 83c0 5 1 9 4 11z" />
    <glyph glyph-name="period" unicode="." horiz-adv-x="254" 
d="M118 188c36 0 79 -31 79 -75c0 -17 -8 -37 -13 -37c0 -15 -73 -77 -115 -77c-37 0 -66 29 -66 67c0 58 77 122 115 122z" />
    <glyph glyph-name="slash" unicode="/" horiz-adv-x="699" 
d="M86 0c-2 -3 -6 -5 -12 -5c-28 0 -72 40 -72 67c0 15 0 16 339 369c27 16 71 58 287 264c13 10 34 15 63 15c39 0 58 -12 58 -35c0 -36 -46 -87 -219 -240c-124 -109 -191 -171 -200 -184c-8 0 -213 -204 -244 -251z" />
    <glyph glyph-name="zero" unicode="0" horiz-adv-x="760" 
d="M784 480c0 151 -123 249 -268 249c-259 0 -515 -278 -515 -547c0 -121 92 -182 251 -182c150 0 308 56 365 130c111 143 167 260 167 350zM155 230c0 191 168 368 351 368c89 0 157 -46 157 -108c0 -139 -218 -364 -357 -364c-91 0 -151 41 -151 104z" />
    <glyph glyph-name="one" unicode="1" horiz-adv-x="363" 
d="M0 56c87 177 155 325 204 444l-96 -21c-3 0 -4 0 -5 7c0 13 4 43 13 90c131 107 158 120 220 120c35 0 53 -11 53 -32c0 -40 -48 -163 -61 -176c-168 -340 -192 -391 -200 -424c-48 -58 -54 -65 -78 -65c-31 0 -49 20 -50 57z" />
    <glyph glyph-name="two" unicode="2" horiz-adv-x="654" 
d="M248 472c85 47 230 100 283 100c39 0 59 -12 59 -36c0 -58 -70 -100 -304 -225c-216 -115 -283 -165 -283 -204c0 -27 18 -63 53 -107c229 49 382 73 458 73c3 0 16 -2 53 -9c27 0 52 43 52 89c0 30 -1 30 -50 32c-105 0 -306 -13 -309 -21c291 132 438 255 440 367
c0 106 -79 194 -175 194c-22 0 -22 0 -230 -69c-91 -35 -136 -68 -136 -101c0 -36 44 -86 76 -86c5 0 9 1 13 3z" />
    <glyph glyph-name="three" unicode="3" horiz-adv-x="616" 
d="M252 -3c-123 0 -252 45 -252 91c3 32 25 56 68 72c3 -38 54 -61 125 -61c40 0 77 7 111 21c108 44 162 81 162 111c0 40 -69 62 -194 62h-92c13 72 21 87 39 87c34 0 164 53 222 92c49 31 71 61 71 88c-1 28 -25 42 -72 42c-85 0 -191 -47 -260 -114c-2 -2 -4 -3 -7 -3
c-26 0 -75 56 -75 88c0 36 267 145 356 145c101 0 170 -59 170 -142c0 -63 -47 -127 -140 -192c63 -36 94 -83 94 -140c0 -131 -157 -247 -326 -247z" />
    <glyph glyph-name="four" unicode="4" horiz-adv-x="626" 
d="M536 388l128 272c3 5 4 10 4 14c0 16 -14 24 -43 24c-66 0 -82 -16 -142 -176c-31 -83 -47 -127 -47 -134c0 -4 -196 -43 -248 -43c-8 0 -12 1 -12 3c5 42 29 82 116 177c56 61 73 86 73 107s-17 31 -50 31c-45 0 -77 -12 -95 -35c-144 -188 -209 -287 -217 -329
c0 -23 67 -87 97 -87c22 9 221 45 250 45c12 0 20 -11 20 -26c0 -20 -4 -27 -48 -113c-26 -51 -36 -77 -39 -98c0 -15 14 -23 43 -23c69 0 70 2 158 255c53 11 83 18 104 24c16 53 24 89 24 106c0 7 -1 10 -4 10c-10 0 -34 -1 -72 -4z" />
    <glyph glyph-name="five" unicode="5" horiz-adv-x="678" 
d="M228 648c-105 -193 -156 -297 -156 -312c3 -25 33 -54 92 -88c101 27 176 41 227 41c42 0 64 -13 64 -58c0 -56 -50 -99 -159 -99c-90 0 -203 17 -208 32c-60 -22 -90 -47 -90 -75c0 -20 8 -26 84 -52c62 -21 123 -32 182 -32c134 0 235 54 304 164c24 39 36 75 36 107
c0 78 -83 133 -201 133c-27 0 -77 -7 -151 -21c-21 0 -25 2 -25 20c0 25 16 66 49 124c142 17 247 26 315 26c31 0 31 0 71 -8c32 0 64 49 64 90c0 38 -16 46 -68 46c-77 0 -221 -13 -430 -38z" />
    <glyph glyph-name="six" unicode="6" horiz-adv-x="619" 
d="M3 162c0 -122 43 -160 183 -160c116 0 314 72 386 136c34 30 51 68 51 115c0 108 -54 165 -156 165s-252 -57 -327 -122c35 130 216 237 397 237h43c15 7 23 33 23 78c0 37 -8 64 -23 81c-292 -4 -577 -265 -577 -530zM156 180c57 63 75 77 176 116c39 15 79 22 122 22
c52 0 78 -18 78 -54c0 -69 -219 -147 -323 -147c-45 0 -68 11 -68 33c0 9 5 19 15 30z" />
    <glyph glyph-name="seven" unicode="7" horiz-adv-x="537" 
d="M72 656c55 18 437 69 470 69c20 0 33 -34 33 -91c0 -27 -4 -47 -11 -62c-6 -11 -117 -148 -444 -548c-11 -14 -25 -21 -42 -21c-39 0 -70 34 -70 49c0 28 343 496 372 496c-238 -41 -242 -43 -286 -65c-7 0 -41 56 -41 128c0 26 6 41 19 45z" />
    <glyph glyph-name="eight" unicode="8" horiz-adv-x="700" 
d="M0 164c0 -111 47 -166 140 -166c76 0 211 35 335 86c131 54 193 107 193 160c-4 94 -37 185 -80 220c93 72 140 133 140 182c0 55 -50 78 -147 78c-140 0 -298 -26 -361 -76c-71 -56 -106 -108 -106 -156c0 -39 27 -71 80 -94c-97 -31 -194 -154 -194 -234zM302 449
c-22 20 -33 40 -33 60c0 33 33 61 98 83c54 17 102 26 143 26c36 0 54 -7 54 -21c0 -70 -107 -132 -262 -148zM157 197c0 36 34 78 78 96c82 33 147 50 195 50c47 0 80 -22 80 -52c0 -65 -154 -158 -253 -158c-55 0 -100 27 -100 64z" />
    <glyph glyph-name="nine" unicode="9" horiz-adv-x="610" 
d="M635 559c0 107 -36 135 -172 135c-147 0 -349 -75 -412 -150c-25 -30 -40 -75 -43 -132c0 -91 86 -156 208 -156c95 0 227 61 273 126c-42 -154 -163 -258 -307 -258h-36c-15 -7 -23 -27 -23 -58c0 -27 8 -49 23 -66c160 2 285 79 375 231c81 148 114 241 114 328z
M279 374c-7 -3 -24 -5 -51 -5c-78 0 -117 25 -117 75c0 26 22 51 66 74c122 56 176 75 224 75c54 0 99 -24 99 -52c0 -34 -105 -114 -221 -167z" />
    <glyph glyph-name="colon" unicode=":" 
d="M118 188c36 0 79 -31 79 -75c0 -17 -8 -37 -13 -37c0 -15 -73 -77 -115 -77c-37 0 -66 29 -66 67c0 58 77 122 115 122zM165 453c36 0 79 -31 79 -75c0 -17 -8 -37 -13 -37c0 -15 -73 -77 -115 -77c-37 0 -66 29 -66 67c0 58 77 122 115 122z" />
    <glyph glyph-name="semicolon" unicode=";" 
d="M165 453c36 0 79 -31 79 -75c0 -17 -8 -37 -13 -37c0 -15 -73 -77 -115 -77c-37 0 -66 29 -66 67c0 58 77 122 115 122zM5 47c-1 6 -2 12 -2 19c0 58 77 122 115 122c36 0 79 -31 79 -75c0 -16 -8 -37 -13 -37c1 0 1 0 1 -1c0 -9 -40 -73 -67 -100
c-24 -24 -48 -36 -71 -36c-13 0 -25 4 -38 12c29 29 44 51 44 67c0 17 -16 27 -48 29z" />
    <glyph glyph-name="less" unicode="&#x3c;" horiz-adv-x="550" 
d="M269 370c55 -6 195 -50 198 -61c43 -66 43 -67 43 -76c0 -11 -12 -17 -36 -17c-33 0 -101 14 -204 41s-170 41 -203 41c0 -1 -1 -1 -2 -1c-10 0 -60 57 -60 83c0 13 0 14 208 92c137 52 218 78 242 78c9 0 48 -60 48 -73c0 -18 -1 -18 -234 -107z" />
    <glyph glyph-name="equal" unicode="=" horiz-adv-x="480" 
d="M3 316c7 6 300 37 400 37c28 0 43 -2 44 -6c42 -61 42 -61 42 -71c0 -31 -46 -38 -397 -54h-33c-10 0 -60 57 -60 83c0 5 1 9 4 11zM29 490c7 6 300 37 400 37c28 0 43 -2 44 -6c42 -61 42 -61 42 -71c0 -31 -46 -38 -397 -54h-33c-10 0 -60 57 -60 83c0 5 1 9 4 11z" />
    <glyph glyph-name="greater" unicode="&#x3e;" horiz-adv-x="491" 
d="M14 534c25 0 420 -92 427 -113c42 -61 42 -61 42 -71c0 -9 -6 -16 -18 -21c-239 -99 -357 -141 -398 -141c0 -1 -1 -1 -2 -1c-10 0 -60 57 -60 83c0 11 1 12 83 43c59 23 110 40 152 51c-51 16 -108 32 -170 49c0 -1 0 -1 -1 -1c-12 0 -62 83 -62 109c0 5 1 12 7 13z" />
    <glyph glyph-name="question" unicode="?" horiz-adv-x="596" 
d="M84 376c79 45 172 84 220 92c182 24 230 35 230 86c0 48 -56 88 -144 88c-74 0 -253 -50 -294 -74h-4c-19 0 -59 39 -59 59c0 13 183 98 324 98c73 0 133 -18 196 -59c80 -51 81 -68 85 -119c0 -81 -54 -136 -162 -163c-307 -50 -310 -51 -360 -132c-43 23 -65 44 -65 63
c0 12 11 38 33 61zM0 0h188h-188zM118 188c36 0 79 -31 79 -75c0 -17 -8 -37 -13 -37c0 -15 -73 -77 -115 -77c-37 0 -66 29 -66 67c0 58 77 122 115 122z" />
    <glyph glyph-name="at" unicode="@" horiz-adv-x="756" 
d="M663 490c0 62 -68 108 -157 108c-183 0 -351 -177 -351 -368c0 -63 60 -104 151 -104c82 0 141 11 178 33c7 2 17 3 28 3c57 0 110 -21 110 -44c0 -53 -177 -118 -370 -118c-159 0 -251 61 -251 182c0 269 256 547 515 547c145 0 268 -98 268 -249
c0 -173 -114 -275 -322 -275c-169 2 -237 42 -237 124c0 112 118 210 200 210s144 -55 144 -130c0 -18 -3 -37 -10 -57c82 0 104 18 104 138zM395 420c30 0 45 -13 45 -38c0 -30 -20 -44 -59 -44c-29 0 -44 8 -44 24c0 31 22 58 58 58z" />
    <glyph glyph-name="A" unicode="A" horiz-adv-x="717" 
d="M88 0c-64 7 -96 28 -96 64c0 119 510 634 662 634c17 0 36 -13 58 -38c9 -10 13 -35 13 -75c0 -172 -73 -535 -93 -545c-13 -7 -30 -10 -53 -10c-48 0 -50 9 -54 37c0 18 5 42 15 73c-30 8 -63 12 -99 12c-90 0 -208 -30 -269 -68zM332 268l184 12c32 17 48 29 48 36
c15 122 15 122 15 133c0 18 -3 20 -26 20c-51 0 -111 -55 -221 -201z" />
    <glyph glyph-name="B" unicode="B" horiz-adv-x="700" 
d="M220 648c-72 -153 -145 -315 -220 -484c-3 -13 -4 -25 -4 -36c0 -78 61 -130 150 -130c70 0 210 37 329 86c131 54 193 107 193 160c-4 94 -37 185 -80 220c93 72 140 133 140 182c0 62 -67 88 -229 88c-147 0 -240 -29 -279 -86zM291 469l65 143c53 18 100 27 141 27
c37 0 56 -7 56 -22c0 -69 -110 -132 -262 -148zM180 189c0 24 13 61 40 111c86 29 154 44 205 44c49 0 85 -22 85 -53c0 -36 -60 -95 -118 -119c-61 -25 -104 -38 -129 -38c-45 0 -83 25 -83 55z" />
    <glyph glyph-name="C" unicode="C" horiz-adv-x="618" 
d="M419 625c62 0 103 -39 123 -117c54 0 111 48 120 88c0 78 -109 144 -236 144c-136 0 -237 -88 -380 -324c-29 -47 -43 -104 -43 -170c0 -161 75 -252 208 -252c167 0 356 103 356 211c0 34 -8 63 -25 87l-120 -48c0 -68 -68 -112 -168 -112c-44 0 -75 11 -92 32
c-25 32 -38 68 -38 107c0 120 193 349 295 354z" />
    <glyph glyph-name="D" unicode="D" horiz-adv-x="726" 
d="M84 6c-55 0 -83 26 -83 79c0 16 2 32 7 47c134 341 203 508 208 508c17 27 64 49 142 68c55 14 92 20 111 20c214 -16 322 -75 322 -176c0 -141 -224 -398 -421 -475c-84 -31 -238 -71 -286 -71zM656 520c-5 56 -47 89 -108 89c-17 0 -121 -11 -127 -13
c-80 -19 -89 -36 -229 -388c0 -23 3 -30 35 -30c103 0 429 269 429 342z" />
    <glyph glyph-name="E" unicode="E" horiz-adv-x="658" 
d="M292 708c76 22 289 56 363 56c23 0 35 -3 37 -8c9 -19 13 -40 13 -62c0 -55 -11 -57 -191 -77c-99 -11 -149 -20 -150 -25l-44 -108c0 3 187 34 230 34c22 0 22 0 48 -38c13 -17 20 -30 20 -39c0 -18 0 -19 -366 -125c-3 -3 -27 -55 -72 -156c165 70 271 105 320 105
c33 0 69 -66 69 -106c0 -27 0 -28 -233 -100c-128 -40 -202 -60 -223 -60c-40 0 -115 44 -115 74c0 35 225 616 294 635z" />
    <glyph glyph-name="F" unicode="F" horiz-adv-x="658" 
d="M292 708c76 22 289 56 363 56c23 0 35 -3 37 -8c9 -19 13 -40 13 -62c0 -55 -11 -57 -191 -77c-99 -11 -149 -20 -150 -25l-44 -108c0 3 187 34 230 34c22 0 22 0 48 -38c13 -17 20 -30 20 -39c0 -18 0 -19 -366 -125c-3 -3 -50 -102 -141 -297c-11 -11 -25 -17 -40 -17
c-37 0 -73 31 -73 68c0 44 227 619 294 638z" />
    <glyph glyph-name="G" unicode="G" horiz-adv-x="788" 
d="M298 358c0 -33 37 -62 82 -62h25c55 11 96 16 124 17c0 -66 -126 -192 -208 -192c-115 0 -198 67 -198 160c0 115 165 276 328 321c23 7 60 12 110 15c71 -46 92 -66 92 -84c29 21 42 35 96 92c-51 86 -116 127 -205 128c-141 0 -377 -67 -492 -329
c-33 -75 -50 -141 -50 -199c0 -106 48 -155 139 -193c50 -21 101 -31 152 -31c139 0 228 60 336 225c31 46 57 72 80 79c9 3 41 29 96 80c-19 58 -45 87 -76 87c-5 0 -11 -1 -16 -3c-79 -27 -179 -46 -300 -56c-83 -20 -115 -35 -115 -55z" />
    <glyph glyph-name="H" unicode="H" horiz-adv-x="796" 
d="M292 672c-288 -602 -290 -607 -290 -620c0 -25 22 -42 54 -42c21 0 36 7 44 22c114 209 135 240 148 240c182 15 235 19 241 19c15 0 19 -1 19 -4c0 -12 -29 -84 -88 -215c33 -50 56 -75 67 -75c3 0 7 6 188 346c117 218 176 325 177 325c0 35 -47 63 -87 63
c-21 0 -36 -8 -45 -23c-99 -183 -149 -280 -149 -291c0 -1 0 -1 1 -1c-90 0 -284 -14 -284 -24c5 0 141 274 141 279s-28 44 -76 44c-25 0 -46 -14 -61 -43z" />
    <glyph glyph-name="I" unicode="I" horiz-adv-x="659" 
d="M475 723c59 0 129 -1 209 -3c15 -21 22 -51 22 -90c0 -63 -9 -74 -166 -74c-139 -249 -209 -382 -209 -398c0 -2 2 -2 15 -4c21 0 61 5 118 14c-7 -80 -39 -127 -92 -132s-177 -17 -372 -36c21 86 50 142 76 144h50c49 0 51 2 145 178c54 101 115 226 117 239
c0 5 -13 7 -38 7c-36 0 -90 -4 -162 -12l45 96c40 69 50 71 242 71z" />
    <glyph glyph-name="J" unicode="J" horiz-adv-x="718" 
d="M156 336c0 25 -37 50 -68 50c-54 0 -84 -76 -84 -191c0 -55 12 -90 36 -103c103 -70 135 -90 211 -90c65 0 129 26 193 78c41 33 196 353 196 416c11 25 20 36 28 36c65 0 98 26 101 89c0 54 -2 60 -90 60c-178 0 -253 -23 -283 -89c-8 -17 -12 -33 -12 -46
c0 -37 21 -46 98 -46c9 0 14 -3 14 -9c0 -12 -125 -308 -140 -323c-26 -26 -58 -39 -95 -39c-35 0 -68 9 -97 27c-13 8 -19 34 -19 77c0 47 4 82 11 103z" />
    <glyph glyph-name="K" unicode="K" horiz-adv-x="874" 
d="M368 752c-116 -270 -194 -422 -224 -432c-47 -15 -93 -54 -93 -78c0 -2 3 -16 13 -66c-64 -83 -65 -84 -65 -87c0 -23 74 -89 112 -89c29 0 51 35 181 292c207 -151 312 -236 312 -253c0 -3 3 -5 8 -5c39 -1 116 48 116 76c0 32 -235 250 -264 250c-4 0 -6 2 -6 5
c0 4 3 10 10 19c312 157 468 248 468 274c0 23 -65 67 -96 67c-7 0 -8 0 -206 -110c-114 -64 -177 -95 -188 -95c-1 0 -2 0 -15 7c-2 0 -5 -1 -7 -3c34 79 72 174 72 185c0 28 -50 54 -98 54c-17 0 -27 -4 -30 -11z" />
    <glyph glyph-name="L" unicode="L" horiz-adv-x="533" 
d="M388 728c-16 -16 -387 -610 -387 -669c0 -36 37 -61 90 -61c16 0 386 65 401 98c56 110 62 122 62 137c0 17 -31 28 -78 28c-21 0 -41 -3 -60 -9c-6 -61 -42 -75 -64 -76c-21 -1 -33 -3 -109 -14c-10 0 -15 4 -15 12c0 29 239 478 261 478c1 0 2 1 2 2
c0 24 -52 83 -82 83c-8 0 -15 -3 -21 -9z" />
    <glyph glyph-name="M" unicode="M" horiz-adv-x="995" 
d="M315 659c-39 -39 -312 -466 -312 -555c0 -53 30 -102 62 -102c20 0 21 0 136 237c58 118 92 177 103 177c28 0 42 -14 42 -42c0 -15 -9 -83 -22 -162c-12 -49 -18 -83 -18 -102c0 -47 22 -64 89 -67c54 0 70 19 137 145c13 25 77 91 192 196l20 -24
c-57 -143 -85 -233 -85 -272c0 -9 2 -14 5 -16c55 -39 97 -59 127 -59c12 0 19 5 21 15c19 105 205 611 254 644c0 9 -39 33 -118 72c-141 -91 -301 -239 -480 -444c-2 68 -3 123 -3 164c0 65 3 96 7 96c9 0 21 40 21 70c0 46 -15 56 -93 56c-39 0 -67 -9 -85 -27z" />
    <glyph glyph-name="N" unicode="N" horiz-adv-x="795" 
d="M330 688c15 7 26 11 33 11c43 0 101 -197 141 -451c1 -3 1 -4 2 -4c7 0 44 78 110 235c100 236 101 236 133 238c54 0 103 -20 103 -45c0 -11 -51 -117 -152 -316c-96 -188 -144 -289 -144 -303c0 -3 0 -5 1 -5c0 -12 -23 -24 -46 -24c-33 0 -58 20 -75 60
c-84 294 -96 336 -116 336c-32 -3 -39 -16 -125 -235c-45 -114 -67 -176 -67 -185c0 -7 -9 -10 -27 -10c-62 6 -97 31 -97 81c220 548 239 582 326 617z" />
    <glyph glyph-name="O" unicode="O" horiz-adv-x="760" 
d="M784 480c0 151 -123 249 -268 249c-256 0 -515 -275 -515 -547c0 -121 92 -182 251 -182c150 0 308 56 365 130c111 143 167 260 167 350zM155 230c0 191 168 368 351 368c89 0 157 -46 157 -108c0 -139 -218 -364 -357 -364c-91 0 -151 41 -151 104z" />
    <glyph glyph-name="P" unicode="P" horiz-adv-x="786" 
d="M280 652c-3 -12 -5 -34 -6 -65c-1 -42 -1 -42 -107 -269c-65 -129 -120 -204 -163 -226c-4 -2 -6 -6 -6 -12c0 -38 46 -86 89 -86c46 0 64 24 135 147c35 60 54 90 58 91c207 18 562 246 562 361c0 85 -128 155 -280 155c-93 0 -269 -54 -282 -96zM340 386
c0 28 95 189 104 198c29 27 81 41 156 41c78 0 113 -9 117 -29c0 -21 -67 -83 -161 -148c-44 -30 -158 -69 -203 -69c-9 0 -13 2 -13 7z" />
    <glyph glyph-name="Q" unicode="Q" horiz-adv-x="770" 
d="M656 183c38 -34 57 -65 58 -95c0 -31 -56 -75 -87 -75c-9 0 -14 4 -15 12c-3 21 -14 44 -33 68c-72 -55 -206 -93 -327 -93c-159 0 -251 61 -251 182c0 269 256 547 515 547c145 0 268 -98 268 -249c0 -81 -43 -180 -128 -297zM540 262c82 85 123 161 123 228
c0 62 -68 108 -157 108c-183 0 -351 -177 -351 -368c0 -63 60 -104 151 -104c45 0 99 23 160 69c-21 15 -45 30 -71 46c-1 2 -2 5 -2 8c0 23 19 44 55 44c28 0 55 -11 92 -31z" />
    <glyph glyph-name="R" unicode="R" horiz-adv-x="786" 
d="M353 379c45 0 159 39 203 69c31 21 62 45 93 71c45 38 68 64 68 77c0 11 -15 29 -117 29c-75 0 -127 -14 -156 -41c-9 -9 -104 -170 -104 -198c0 -5 3 -7 13 -7zM488 294c148 -68 223 -136 226 -206c0 -31 -56 -75 -87 -75c-9 0 -14 4 -15 12c-9 63 -87 138 -234 227
c-36 -11 -69 -17 -98 -20c-4 -1 -23 -31 -58 -91c-70 -122 -89 -147 -135 -147c-43 0 -89 48 -89 86c0 6 2 10 6 12c63 32 117 123 260 436c6 11 9 31 10 59c1 31 3 53 6 65c13 42 189 96 282 96c153 0 268 -63 280 -155c0 -75 -159 -210 -354 -299z" />
    <glyph glyph-name="S" unicode="S" horiz-adv-x="704" 
d="M513 728c-90 0 -208 -25 -249 -52l-87 -54c-76 -55 -112 -119 -117 -214c0 -38 63 -75 124 -75c54 8 67 10 118 10c139 0 226 -22 226 -58c0 -34 -28 -102 -53 -126c-24 -24 -58 -36 -102 -36c-130 0 -232 33 -241 81c-1 7 -7 11 -16 11c-36 0 -118 -59 -118 -85
c18 -54 128 -130 306 -130c150 0 368 109 368 286c0 116 -67 175 -202 175c-9 0 -20 0 -147 -6c-76 0 -98 11 -99 33c0 36 30 53 156 116c21 13 47 19 80 19c67 0 133 -27 136 -55c4 -37 22 -56 53 -56c44 0 88 43 88 88c0 76 -91 128 -224 128z" />
    <glyph glyph-name="T" unicode="T" horiz-adv-x="582" 
d="M623 644c0 -34 -3 -53 -10 -58c-7 -4 -77 -13 -211 -27c-29 -25 -44 -39 -44 -44c-48 -35 -91 -130 -220 -460c-33 -37 -59 -55 -79 -55c-25 0 -46 30 -50 63c0 62 182 460 205 460c1 1 2 3 4 3c-1 2 -1 2 -16 17c-103 -8 -112 -10 -161 -30c-17 0 -23 33 -23 134
c351 58 460 73 550 73c46 0 55 0 55 -76z" />
    <glyph glyph-name="U" unicode="U" horiz-adv-x="783" 
d="M236 692c-228 -473 -230 -490 -234 -539c0 -79 60 -158 119 -158c8 0 16 2 23 5c131 54 214 81 248 81c15 0 23 -4 24 -13c2 -26 27 -39 75 -39c21 0 42 2 65 7c0 106 207 589 276 612c5 1 7 4 7 9c0 23 -59 66 -96 66c-26 0 -30 0 -166 -237
c-75 -131 -113 -203 -113 -218c0 -30 -163 -89 -246 -89c-35 0 -53 13 -53 40c0 109 184 456 203 465c2 1 3 3 3 6c0 19 -41 47 -74 47c-26 0 -46 -15 -61 -45z" />
    <glyph glyph-name="V" unicode="V" horiz-adv-x="635" 
d="M50 328c0 -119 -5 -183 -14 -192c-21 -21 -32 -41 -32 -60c0 -5 1 -7 4 -8c7 -3 55 -25 144 -68c154 317 267 481 348 508c116 38 127 50 180 148l-80 76c-315 -240 -344 -269 -436 -480c0 438 0 438 -22 438c-47 -1 -103 -37 -103 -68c10 -103 11 -129 11 -294z" />
    <glyph glyph-name="W" unicode="W" horiz-adv-x="952" 
d="M148 660c81 -17 122 -35 122 -54c0 -2 -1 -4 -2 -6c-19 -31 -86 -244 -86 -271v-2c259 291 292 325 305 325c5 -2 9 -2 11 -2c19 0 54 10 106 30l4 -364c219 290 314 408 328 408c56 -28 84 -51 84 -68c0 -5 -65 -100 -194 -283c-122 -173 -182 -268 -182 -287
c0 -2 0 -4 1 -6c0 -19 -52 -39 -157 -60c-7 189 -30 418 -41 418c-20 0 -251 -315 -295 -410c-7 -16 -28 -24 -63 -24c-60 0 -85 20 -85 74c0 155 129 582 144 582z" />
    <glyph glyph-name="X" unicode="X" horiz-adv-x="808" 
d="M434 460c1 -1 2 -2 4 -2c13 0 68 40 165 121c144 120 146 120 170 122c69 0 92 -9 92 -35c0 -40 -49 -87 -204 -196c-105 -74 -155 -117 -155 -130c4 -42 4 -42 16 -64c39 -73 69 -117 88 -132c3 -3 5 -7 5 -12c0 -29 -67 -94 -97 -94c-33 0 -126 166 -136 206
c-13 0 -265 -199 -296 -244c-3 -3 -7 -5 -12 -5c-28 0 -72 40 -72 67c0 16 2 18 284 278c13 15 20 35 20 60c0 23 0 24 -58 114c-28 44 -42 70 -42 78c0 23 59 76 87 76c26 0 59 -45 141 -208z" />
    <glyph glyph-name="Y" unicode="Y" horiz-adv-x="634" 
d="M8 112c-5 -1 -7 -4 -7 -10c0 -32 47 -96 75 -96c7 0 12 3 16 10c101 175 376 516 472 568c67 36 115 86 115 125c0 30 -30 64 -59 64c-31 0 -81 -34 -148 -101c-85 -86 -141 -152 -168 -200h-2c-20 0 -131 195 -134 228c-1 12 -10 18 -25 18c-40 0 -75 -36 -75 -78
c0 -66 111 -238 128 -244c3 -1 4 -3 4 -8c0 -28 -167 -272 -192 -276z" />
    <glyph glyph-name="Z" unicode="Z" horiz-adv-x="671" 
d="M176 628l60 28c246 53 387 80 424 80c35 0 59 -56 59 -104c0 -18 -4 -31 -11 -39c-415 -351 -415 -351 -415 -375c0 -13 7 -20 20 -20c152 44 198 57 227 57c21 0 63 -69 63 -98c0 -10 -3 -17 -10 -21c-400 -104 -453 -118 -457 -136c-1 -5 -5 -8 -11 -8
c-34 0 -121 70 -121 97c0 69 423 463 478 463c11 0 16 5 16 16c0 4 -1 8 -2 12c-164 -40 -225 -59 -244 -76c-3 -2 -6 -3 -9 -3c-27 0 -73 68 -73 109c0 8 2 14 6 18z" />
    <glyph glyph-name="bracketleft" unicode="[" horiz-adv-x="535" 
d="M180 160c91 34 150 52 176 52c32 0 58 -42 58 -92c0 -37 -2 -38 -157 -85c-76 -24 -123 -36 -142 -36c-37 0 -117 42 -117 74c0 35 225 616 294 635c98 27 175 41 232 41c33 0 50 -5 50 -72c0 -52 -18 -58 -126 -69c-55 -5 -83 -11 -84 -16c-2 -5 -34 -82 -44 -108z" />
    <glyph glyph-name="backslash" unicode="\" horiz-adv-x="467" 
d="M5 591c0 23 59 76 87 76c26 0 59 -45 141 -208c24 -73 179 -338 202 -355c3 -3 5 -7 5 -12c0 -29 -67 -94 -97 -94c-31 0 -231 379 -246 437c-78 122 -92 145 -92 156z" />
    <glyph glyph-name="bracketright" unicode="]" horiz-adv-x="549" 
d="M407 600c-101 -36 -175 -54 -220 -54c-14 0 -23 2 -23 19c0 29 42 105 65 119c29 20 205 77 243 77c37 0 117 -41 117 -73c0 -37 -225 -631 -293 -650c-58 -17 -229 -38 -277 -38c-15 0 -22 19 -22 57c0 79 11 83 135 95c59 6 90 11 91 16l112 276c2 3 26 55 72 156z" />
    <glyph glyph-name="asciicircum" unicode="^" horiz-adv-x="393" 
d="M340 646c-22 25 -41 38 -58 38c-87 -7 -100 -8 -274 -168c0 -55 22 -93 69 -120c73 71 125 106 156 106c22 0 45 -58 45 -112c5 -3 12 -5 20 -5c37 0 95 35 122 74c0 71 0 94 -80 187z" />
    <glyph glyph-name="underscore" unicode="_" horiz-adv-x="668" 
d="M6 -19c6 5 385 20 543 20c81 0 123 -2 124 -7c43 -63 43 -64 43 -73c0 -33 -46 -35 -481 -37c-92 0 -149 2 -171 4c0 -1 -1 -1 -2 -1c-10 0 -60 57 -60 83c0 5 1 9 4 11z" />
    <glyph glyph-name="grave" unicode="`" horiz-adv-x="181" 
d="M0 574c0 58 77 122 115 122c36 0 79 -31 79 -75c0 -16 -8 -37 -13 -37s-39 -27 -39 -53c0 -19 13 -39 39 -60c-119 0 -173 31 -181 103z" />
    <glyph glyph-name="a" unicode="a" horiz-adv-x="587" 
d="M70 0c-51 5 -76 22 -76 51c0 84 381 489 530 508c13 0 28 -10 46 -31c7 -8 10 -28 10 -60c0 -108 -55 -426 -74 -436c-11 -5 -25 -8 -43 -8c-37 0 -40 5 -43 29c0 15 4 34 12 59c-24 6 -50 9 -79 9c-77 0 -168 -23 -215 -54zM266 214l147 10c25 13 38 23 38 29
c11 79 12 92 12 106c0 13 -2 17 -21 17c-37 0 -96 -54 -176 -162z" />
    <glyph glyph-name="b" unicode="b" horiz-adv-x="545" 
d="M176 518c-174 -373 -175 -374 -179 -415c0 -63 47 -104 120 -104c58 0 165 27 263 68c105 43 154 86 154 128c-2 75 -29 148 -64 176c75 58 112 107 112 146c0 50 -53 70 -183 70c-118 0 -192 -23 -223 -69zM233 375l52 115c42 14 80 21 113 21c30 0 44 -6 44 -17
c-7 -60 -77 -106 -209 -119zM144 151c0 19 11 49 32 89c69 23 124 35 164 35s68 -17 68 -42c0 -51 -123 -126 -198 -126c-36 0 -66 21 -66 44z" />
    <glyph glyph-name="c" unicode="c" horiz-adv-x="494" 
d="M336 500c49 0 82 -32 98 -94c40 0 88 37 96 71c0 61 -87 115 -189 115c-110 0 -191 -72 -304 -259c-23 -38 -35 -83 -35 -136c0 -128 61 -202 167 -202c134 0 285 81 285 169c0 27 -7 51 -20 70l-96 -39c0 -47 -46 -89 -135 -89c-70 0 -104 45 -104 111
c0 96 153 278 237 283z" />
    <glyph glyph-name="d" unicode="d" horiz-adv-x="602" 
d="M67 4c-44 0 -66 21 -66 64c0 13 2 25 5 38c107 273 163 406 167 406c26 41 163 70 203 70c33 0 123 -16 164 -31c62 -24 93 -60 93 -109c0 -81 -84 -201 -220 -314c-73 -60 -281 -124 -346 -124zM441 487c-11 0 -99 -9 -104 -10c-66 -17 -73 -34 -183 -311
c0 -18 0 -24 28 -24c71 -1 343 210 343 272c0 33 -28 73 -84 73z" />
    <glyph glyph-name="e" unicode="e" horiz-adv-x="526" 
d="M234 566c48 14 213 45 290 45c18 0 28 -2 30 -6c7 -16 10 -33 10 -50c0 -44 -9 -46 -153 -62c-79 -9 -119 -15 -120 -19l-35 -87c0 2 150 28 184 28c16 0 17 0 38 -31c11 -14 16 -24 16 -31s-5 -13 -14 -17c-92 -27 -185 -54 -278 -83c-2 -2 -21 -44 -58 -125
c132 56 217 84 256 84c25 0 55 -50 55 -85c0 -21 0 -22 -187 -80c-103 -32 -162 -47 -179 -47c-23 0 -90 29 -90 58c0 35 181 493 235 508z" />
    <glyph glyph-name="f" unicode="f" horiz-adv-x="526" 
d="M234 566c48 14 213 45 290 45c18 0 28 -2 30 -6c7 -16 10 -33 10 -50c0 -44 -9 -46 -153 -62c-79 -9 -119 -15 -120 -19l-35 -87c0 2 150 28 184 28c16 0 17 0 38 -31c11 -14 16 -24 16 -31s-5 -13 -14 -17c-92 -27 -185 -54 -278 -83c-2 -2 -40 -81 -113 -238
c-9 -9 -20 -13 -32 -13c-31 0 -59 25 -59 54s181 495 236 510z" />
    <glyph glyph-name="g" unicode="g" horiz-adv-x="656" 
d="M239 286c0 -28 29 -49 65 -49h20c43 9 76 13 99 14c0 -53 -101 -154 -166 -154c-94 0 -159 53 -159 128c0 93 137 225 263 256c19 5 48 10 88 13c56 -37 73 -53 73 -67c21 14 25 17 77 73c-43 69 -94 102 -159 103c-236 0 -438 -199 -438 -423c0 -80 32 -122 111 -155
c40 -17 81 -25 122 -25c112 0 184 53 268 180c25 37 46 59 64 64c7 2 32 23 77 64c-15 47 -36 70 -61 70c-4 0 -8 -1 -13 -3c-68 -23 -148 -38 -240 -44c-71 -18 -91 -29 -91 -45z" />
    <glyph glyph-name="h" unicode="h" horiz-adv-x="636" 
d="M234 538c-233 -488 -233 -489 -233 -496c0 -20 18 -34 44 -34c17 0 28 6 35 18c101 186 108 192 120 192c141 12 191 15 192 15c12 0 14 -1 14 -4c0 -10 -23 -67 -70 -171c27 -40 45 -60 54 -60c291 536 291 536 292 536c0 28 -39 51 -70 51c-17 0 -29 -6 -36 -19
c-79 -145 -119 -222 -119 -232c0 -1 0 -1 1 -1c-72 0 -228 -11 -228 -19c21 40 113 218 113 222c0 12 -35 36 -60 36c-21 0 -37 -11 -49 -34z" />
    <glyph glyph-name="i" unicode="i" horiz-adv-x="346" 
d="M371 495c0 -23 -23 -57 -49 -67c-24 -9 -39 -17 -44 -25c-57 -126 -115 -254 -176 -384c-10 -13 -25 -20 -45 -20c-30 0 -57 17 -57 36c0 31 209 441 227 467c28 64 38 85 55 85c32 0 89 -59 89 -92z" />
    <glyph glyph-name="j" unicode="j" horiz-adv-x="530" 
d="M394 384c-74 -180 -99 -240 -109 -250c-21 -21 -47 -31 -76 -31s-55 7 -78 22c-10 6 -15 26 -15 61c0 18 0 21 9 86c0 15 -30 37 -54 37c-42 0 -68 -56 -68 -153c0 -44 10 -71 29 -82c81 -57 108 -72 169 -72c51 0 103 21 154 62c30 21 204 390 204 444l9 32
c0 19 -22 31 -67 36c-27 -24 -62 -88 -107 -192z" />
    <glyph glyph-name="k" unicode="k" horiz-adv-x="699" 
d="M294 602c-86 -204 -154 -338 -179 -346c-37 -13 -74 -44 -74 -62c0 -1 1 -7 10 -53c-35 -46 -52 -68 -52 -69c0 -19 62 -72 90 -72c23 0 43 31 145 234c164 -120 249 -189 249 -203c0 -3 2 -4 7 -4c32 0 92 39 92 61c0 26 -187 200 -211 200c-3 0 -5 1 -5 4s3 8 8 15
c250 125 375 199 375 219c0 16 -53 54 -76 54c-7 0 -10 -1 -166 -88c-91 -51 -141 -76 -151 -76c-1 0 -2 0 -11 5c-2 0 -4 0 -6 -2c27 63 58 141 58 148c0 22 -40 44 -79 44c-13 0 -21 -3 -24 -9z" />
    <glyph glyph-name="l" unicode="l" horiz-adv-x="449" 
d="M0 47c0 -30 33 -49 73 -49c10 0 309 52 321 79c41 79 49 96 49 109c0 15 -21 22 -62 22c-17 0 -33 -2 -48 -6c-6 -54 -10 -55 -139 -73c-8 0 -12 3 -12 10c0 22 167 340 211 384c0 19 -42 67 -66 67c-44 0 -327 -518 -327 -543z" />
    <glyph glyph-name="m" unicode="m" horiz-adv-x="796" 
d="M252 527c-23 -23 -229 -353 -246 -415c-2 -9 -3 -19 -3 -29c0 -44 24 -81 49 -81c16 0 16 0 109 189c46 95 73 142 82 142c23 0 34 -11 34 -34c0 -10 -9 -77 -18 -129c-10 -40 -15 -67 -15 -82c0 -36 19 -51 68 -54c46 0 57 12 114 116c11 21 62 73 153 157l16 -19
c-45 -115 -68 -187 -68 -218c0 -7 1 -11 4 -12c44 -31 78 -47 102 -47c9 0 15 4 17 11c18 103 167 494 203 515c0 8 -32 27 -95 58c-113 -73 -241 -192 -384 -355c0 168 0 208 4 208c7 0 16 33 16 56c0 37 -14 45 -74 45c-31 0 -54 -7 -68 -22z" />
    <glyph glyph-name="n" unicode="n" horiz-adv-x="636" 
d="M290 559c37 0 84 -172 113 -361c0 -2 1 -2 2 -3c6 0 35 63 88 188c79 186 81 189 106 191c44 0 83 -17 83 -36c0 -9 -41 -94 -122 -253c-77 -152 -116 -232 -116 -242c0 -1 0 -1 1 -5c0 -5 -9 -18 -36 -18c-49 0 -55 21 -105 205c-21 75 -37 111 -48 111
c-12 -1 -22 -8 -29 -20c-35 -70 -125 -301 -125 -315c0 -6 -7 -9 -21 -9c-45 0 -78 27 -78 67c189 466 190 466 287 500z" />
    <glyph glyph-name="o" unicode="o" horiz-adv-x="643" 
d="M627 384c0 115 -90 199 -214 199c-208 0 -412 -216 -412 -437c0 -97 67 -146 201 -146c117 0 245 44 292 104c89 115 133 208 133 280zM124 184c0 152 135 294 280 294c71 0 126 -36 126 -86c0 -112 -174 -292 -285 -292c-64 0 -121 29 -121 84z" />
    <glyph glyph-name="p" unicode="p" horiz-adv-x="629" 
d="M224 522c-8 -86 -9 -93 -13 -100c-91 -198 -147 -317 -208 -348c-3 -2 -4 -5 -4 -10c0 -31 37 -69 70 -69c38 0 51 19 108 117c28 49 44 73 47 74c168 15 450 195 450 289c0 66 -105 124 -224 124c-69 0 -216 -46 -226 -77zM272 308c0 18 70 147 83 159
c23 22 65 33 125 33s91 -7 94 -23c0 -16 -58 -69 -129 -119c-35 -23 -129 -55 -162 -55c-8 0 -11 1 -11 5z" />
    <glyph glyph-name="q" unicode="q" horiz-adv-x="627" 
d="M525 146c30 -27 45 -53 46 -74c0 -25 -43 -62 -69 -62c-7 0 -11 3 -12 10c-3 17 -12 36 -27 55c-59 -45 -168 -75 -261 -75c-134 0 -201 49 -201 146c0 221 204 437 412 437c124 0 214 -84 214 -199c0 -65 -34 -144 -102 -238zM432 210c65 68 98 129 98 182
c0 50 -55 86 -126 86c-145 0 -280 -142 -280 -294c0 -55 57 -84 121 -84c37 0 79 19 128 56c-17 12 -36 24 -57 37c0 32 8 42 42 42c19 0 43 -8 74 -25z" />
    <glyph glyph-name="r" unicode="r" horiz-adv-x="629" 
d="M283 303c33 0 127 32 162 55c71 50 129 103 129 119c0 14 -34 23 -94 23c-108 0 -121 -17 -171 -110c-25 -46 -37 -73 -37 -82c0 -4 3 -5 11 -5zM390 235c119 -55 180 -110 181 -163c0 -25 -43 -62 -69 -62c-7 0 -11 3 -12 10c-7 50 -70 111 -188 182
c-29 -9 -55 -14 -78 -16c-3 -1 -19 -25 -47 -74c-57 -98 -70 -117 -108 -117c-33 0 -70 38 -70 69c0 5 1 8 4 10c60 30 113 140 208 348c4 7 5 14 13 100c10 32 126 68 226 77c121 0 210 -49 224 -124c0 -61 -130 -171 -284 -240z" />
    <glyph glyph-name="s" unicode="s" horiz-adv-x="552" 
d="M410 582c-71 0 -166 -19 -199 -41c-121 -77 -158 -108 -163 -215c0 -32 52 -59 100 -59c52 7 53 7 93 7c119 -1 181 -17 181 -46c0 -23 -18 -78 -42 -101c-20 -19 -47 -28 -82 -28c-103 0 -186 27 -192 64c-1 6 -6 9 -13 9c-28 0 -93 -47 -94 -68v-5
c47 -66 128 -99 244 -99c120 0 294 86 294 229c0 93 -54 139 -161 139c-7 0 -16 0 -118 -4c-56 0 -78 8 -79 26c0 27 15 39 125 93c17 11 38 16 64 16c53 0 106 -22 109 -45c3 -29 17 -44 42 -44c35 0 70 35 70 70c0 61 -69 102 -179 102z" />
    <glyph glyph-name="t" unicode="t" horiz-adv-x="466" 
d="M499 515c0 -27 -3 -42 -9 -46c-5 -3 -61 -11 -168 -22c-24 -20 -36 -32 -36 -35c-44 -32 -94 -158 -176 -368c-26 -29 -47 -44 -63 -44c-19 0 -37 24 -40 50c0 53 148 368 164 368l3 3c0 1 -2 3 -12 13c-70 -5 -93 -9 -130 -24c-15 0 -18 49 -18 108
c272 44 373 58 440 58c36 0 45 -1 45 -61z" />
    <glyph glyph-name="u" unicode="u" horiz-adv-x="626" 
d="M189 554c-179 -372 -185 -390 -187 -432c0 -63 47 -126 95 -126c6 0 12 1 18 4c105 43 172 65 199 65c12 0 18 -4 19 -11c1 -20 21 -30 60 -30c17 0 34 2 52 5c0 92 168 472 221 489c3 1 5 4 5 7c0 20 -47 54 -77 54c-20 0 -23 0 -133 -191c-60 -104 -90 -162 -90 -173
c0 -21 -119 -72 -196 -72c-29 0 -43 11 -43 32c0 87 147 365 162 372c2 1 3 3 3 5c0 15 -32 38 -59 38c-21 0 -38 -12 -49 -36z" />
    <glyph glyph-name="v" unicode="v" horiz-adv-x="508" 
d="M40 263c0 -95 -4 -147 -11 -154c-17 -17 -26 -33 -26 -48c0 -4 1 -6 3 -7c6 -2 45 -20 116 -54c102 207 201 382 278 406c95 31 105 47 144 119l-64 61c-252 -192 -276 -218 -349 -384c0 350 0 350 -18 350c-35 0 -81 -29 -81 -54c7 -81 8 -104 8 -235z" />
    <glyph glyph-name="w" unicode="w" horiz-adv-x="762" 
d="M118 528c65 -14 98 -28 98 -43c-32 -81 -70 -202 -70 -221c0 -1 0 -2 1 -2c189 214 232 260 242 260c5 -1 9 -2 10 -2c15 0 43 8 84 24l3 -291c193 254 252 326 263 326c45 -22 67 -40 67 -54c0 -5 -52 -80 -155 -227c-98 -138 -146 -214 -146 -229c0 -3 0 -6 1 -6
c0 -15 -42 -30 -126 -47c-6 152 -24 334 -33 334c-16 0 -202 -256 -235 -328c-6 -13 -23 -19 -51 -19c-49 0 -68 17 -68 59c0 99 97 466 115 466z" />
    <glyph glyph-name="x" unicode="x" horiz-adv-x="646" 
d="M347 368h3c11 0 55 31 132 95c78 65 119 97 124 97h49c25 -3 37 -12 37 -27c0 -31 -39 -69 -164 -157c-83 -59 -123 -94 -123 -104c2 -32 3 -33 13 -51c31 -59 55 -94 70 -106c3 -2 4 -5 4 -9c0 -24 -53 -76 -78 -76c-21 0 -95 114 -108 165c-11 0 -213 -160 -237 -195
c-2 -3 -5 -4 -9 -4c-23 0 -58 31 -58 54c0 13 0 14 227 222c11 13 16 29 16 48c0 18 0 18 -47 91c-22 35 -33 56 -33 63c0 13 41 61 69 61c21 0 48 -40 113 -167z" />
    <glyph glyph-name="y" unicode="y" horiz-adv-x="507" 
d="M6 90c-3 -1 -5 -3 -5 -8c0 -28 38 -78 60 -78c5 0 10 3 13 9c88 150 304 416 377 454c61 33 92 66 92 100c0 26 -23 51 -47 51c-47 0 -205 -154 -253 -240h-2c-15 0 -104 152 -107 182c-1 10 -7 15 -19 15c-31 0 -61 -31 -61 -63c0 -48 83 -188 103 -195c2 -1 3 -3 3 -6
c0 -26 -135 -219 -154 -221z" />
    <glyph glyph-name="z" unicode="z" horiz-adv-x="537" 
d="M141 502l48 23c198 43 311 64 339 64c26 0 47 -43 47 -83c0 -15 -3 -25 -8 -32c-332 -280 -332 -280 -332 -300c0 -12 4 -14 24 -14c102 29 160 44 173 44c31 0 51 -65 51 -78c0 -8 -3 -14 -8 -17c-324 -84 -363 -95 -366 -109c-1 -4 -4 -6 -9 -6c-28 0 -97 55 -97 77
c0 50 337 371 382 371c11 0 12 4 12 22c-121 -29 -180 -48 -195 -61c-2 -1 -4 -2 -7 -2c-22 0 -59 55 -59 87c0 7 2 11 5 14z" />
    <glyph glyph-name="braceleft" unicode="{" horiz-adv-x="535" 
d="M180 160c90 34 149 52 176 52c33 0 58 -43 58 -92c0 -37 -2 -38 -157 -85c-76 -24 -123 -36 -142 -36c-37 0 -117 42 -117 74c0 35 225 616 294 635c98 27 175 41 232 41c33 0 50 -5 50 -72c0 -52 -18 -58 -126 -69c-55 -5 -83 -11 -84 -16c-2 -5 -34 -82 -44 -108z" />
    <glyph glyph-name="bar" unicode="|" horiz-adv-x="497" 
d="M260 160c158 353 219 484 272 554c0 24 -52 83 -82 83c-32 0 -44 -23 -440 -838c-7 -15 -11 -29 -11 -41c0 -36 37 -60 90 -60h21c22 27 72 128 150 302z" />
    <glyph glyph-name="braceright" unicode="}" horiz-adv-x="549" 
d="M407 600c-101 -36 -175 -54 -220 -54c-14 0 -23 2 -23 19c0 29 42 105 65 119c29 20 205 77 243 77c37 0 117 -41 117 -73c0 -37 -225 -631 -293 -650c-58 -17 -229 -38 -277 -38c-15 0 -22 19 -22 57c0 79 11 83 135 95c59 6 90 11 91 16l112 276c2 3 26 55 72 156z" />
    <glyph glyph-name="asciitilde" unicode="~" horiz-adv-x="422" 
d="M252 593c-6 10 -62 68 -98 68c-44 0 -126 -76 -129 -119c0 -41 28 -85 70 -109c30 39 55 59 76 59c11 0 27 -11 49 -32c23 -21 44 -31 65 -31c54 0 109 45 144 120c14 31 22 53 23 66c-48 41 -60 47 -80 47c-8 0 -17 -1 -26 -4c-26 -58 -48 -87 -67 -87
c-9 0 -18 7 -27 22z" />
  </font>
</defs>
</svg>
